<svg xmlns="http://www.w3.org/2000/svg" viewBox="0 0 500 500">
  <rect width="500" height="500" rx="100" fill="#0a0a0a"/>
  <g transform="matrix(5.804251,0.05161894,-0.06174394,6.9589776,-114.66292,-662.73691)" fill="#009685" fill-opacity="1">
    <path
      d="m 18.554538,150.48551 c -0.158474,-14.75575 -0.316945,-29.51117 10.95595,-29.78142 11.272894,-0.27025 33.975771,13.94442 45.243999,13.8386 11.268228,-0.10583 11.100442,-14.53243 10.932653,-28.95932"
      transform="matrix(1.0442053,7.9087599e-5,1.1342088e-4,1.0548666,2.794921,0.76917208)"
      opacity="0.687378"
      stroke-width="0.456615"
    />
    <path
      d="m 18.554538,150.48551 c -0.158474,-14.75575 -0.316945,-29.51117 10.95595,-29.78142 11.272894,-0.27025 33.975771,13.94442 45.243999,13.8386 11.268228,-0.10583 11.100442,-14.53243 10.932653,-28.95932"
      transform="matrix(1.0442053,7.9087599e-5,1.1342088e-4,1.0548666,16.361549,-8.3967354)"
      opacity="0.687378"
      stroke-width="0.456615"
    />
  </g>
</svg>
